# xmcd
#
# Track frame offsets:
# 150
# 16111
# 31183
# 53658
# 74272
# 96969
# 110542
# 125708
# 137821
# 153324
# 177035
# 194381
# 208401
#
# Disc length: 2894 seconds
#
#
# Revision: 0
# Processed by: cddbd v1.5.2PL0 Copyright (c) Steve Scherf et al.
# Submitted via: FreeRIP 2.93 
#
DISCID=b40b4c0d
DTITLE=Rodeo - Easy Trip
DYEAR=2008
DGENRE=Country
TTITLE0=Down at the Twist and Shout
TTITLE1=Hand me down my walking cane
TTITLE2=Sixteen tons
TTITLE3=Under the double eagle
TTITLE4=Call me the breeze
TTITLE5=Angry
TTITLE6=Easy trip
TTITLE7=Move it on over
TTITLE8=Duelin' banjos
TTITLE9=Hiding from the blue
TTITLE10=I'm an easy rider
TTITLE11=Trioletto
TTITLE12=Irish coffee
EXTD=
EXTT0=
EXTT1=
EXTT2=
EXTT3=
EXTT4=
EXTT5=
EXTT6=
EXTT7=
EXTT8=
EXTT9=
EXTT10=
EXTT11=
EXTT12=
PLAYORDER=
